# xmcd
#
# Track frame offsets: 
#        150
#        15670
#        40078
#        53076
#        68136
#        83753
#        113029
#        126641
#        138803
#        151091
#        164967
#        185029
#        200939
#        213951
#        224232
#        238163
#        249169
#        267405
#        277983
#        288947
#        302725
#        314553
#        340201
#
# Disc length: 4634 seconds
#
# Revision: 0
# Processed by: cddbd v1.5.2PL0 Copyright (c) Steve Scherf et al.
# Submitted via: ExactAudioCopy v1.0b4
#
DISCID=67121817
DTITLE=Various Artist - Great Bluesmen At Newport (DLP)
DYEAR=1900
DGENRE=Blues
TTITLE0=Robert Pete Williams - Robert Pete Williams - Midnight Boogie
TTITLE1=Robert Pete Williams - Robert Pete Williams - Levee Camp Blues
TTITLE2=Sonny Terry and Brownie McGhee  - Sonny Terry and Brownie McGhee - 
TTITLE2=My Baby Done Changed The Lock On The Door
TTITLE3=John Lee Hooker - John Lee Hooker - Tupelo
TTITLE4=John Lee Hooker - John Lee Hooker - Bus Station Blues
TTITLE5=Son House - Son House - Son's Blues
TTITLE6=Son House - Son House - Death Letter Blues
TTITLE7=Son House - Son House - Pony Blues
TTITLE8=Sleepy John Estes - Sleepy John Estes - Maiman Blues
TTITLE9=Sleepy John Estes - Sleepy John Estes - Clean Up At Home
TTITLE10=Dock Reese - Dock Reese - Hey Rattler Oh My Lord
TTITLE11=Mississippi John Hurt - Mississippi John Hurt - Sliding Delta
TTITLE12=Mississippi John Hurt - Mississippi John Hurt - Trouble, I've
TTITLE12=Had It All My Days
TTITLE13=Skip James - Skip James - Hard Time s Killing Floor Blues
TTITLE14=Skip James - Skip James - Cherry Ball Blues
TTITLE15=Skip James - Skip James - Illinois Blues
TTITLE16=Reverend Gary Davis - Reverend Gary Davis - Death Don't Have 
TTITLE16=No Mercy
TTITLE17=Willie Doss - Willie Doss - Catfish Blues
TTITLE18=Willie Doss - Willie Doss - I Had A Woman
TTITLE19=Mississippi Fred McDowell - Mississippi Fred McDowell - Lord,
TTITLE19=I'm Going Down South
TTITLE20=Mississippi Fred McDowell - Mississippi Fred McDowell - If Th
TTITLE20=e River Was Whiskey
TTITLE21=Lightnin' Hopkins - Lightnin' Hopkins - Cotton Field Blues
TTITLE22=Lightnin' Hopkins - Lightnin' Hopkins - Shake That Thing
EXTD=
EXTT0=
EXTT1=
EXTT2=
EXTT3=
EXTT4=
EXTT5=
EXTT6=
EXTT7=
EXTT8=
EXTT9=
EXTT10=
EXTT11=
EXTT12=
EXTT13=
EXTT14=
EXTT15=
EXTT16=
EXTT17=
EXTT18=
EXTT19=
EXTT20=
EXTT21=
EXTT22=
PLAYORDER=
